  0
SECTION
  2
BLOCKS
  0
ENDSEC
  0
SECTION
  2
ENTITIES
  0
LINE
  8
0
 10
103.561
 20
-119.846
 11
105.061
 21
-119.391
  0
LINE
  8
0
 10
105.061
 20
-119.391
 11
106.445
 21
-118.652
  0
LINE
  8
0
 10
106.445
 20
-118.652
 11
107.657
 21
-117.657
  0
LINE
  8
0
 10
107.657
 20
-117.657
 11
108.652
 21
-116.445
  0
LINE
  8
0
 10
108.652
 20
-116.445
 11
109.391
 21
-115.061
  0
LINE
  8
0
 10
109.391
 20
-115.061
 11
109.846
 21
-113.561
  0
LINE
  8
0
 10
109.846
 20
-113.561
 11
110
 21
-112
  0
LINE
  8
0
 10
110
 20
-112
 11
110
 21
32
  0
LINE
  8
0
 10
110
 20
32
 11
109.846
 21
33.5607
  0
LINE
  8
0
 10
109.846
 20
33.5607
 11
109.391
 21
35.0615
  0
LINE
  8
0
 10
109.391
 20
35.0615
 11
108.652
 21
36.4445
  0
LINE
  8
0
 10
108.652
 20
36.4445
 11
107.657
 21
37.6568
  0
LINE
  8
0
 10
107.657
 20
37.6568
 11
106.445
 21
38.6517
  0
LINE
  8
0
 10
106.445
 20
38.6517
 11
105.061
 21
39.391
  0
LINE
  8
0
 10
105.061
 20
39.391
 11
103.561
 21
39.8463
  0
LINE
  8
0
 10
103.561
 20
39.8463
 11
102
 21
40
  0
LINE
  8
0
 10
102
 20
40
 11
-102
 21
40
  0
LINE
  8
0
 10
-102
 20
40
 11
-103.561
 21
39.8463
  0
LINE
  8
0
 10
-103.561
 20
39.8463
 11
-105.061
 21
39.391
  0
LINE
  8
0
 10
-105.061
 20
39.391
 11
-106.445
 21
38.6517
  0
LINE
  8
0
 10
-106.445
 20
38.6517
 11
-107.657
 21
37.6568
  0
LINE
  8
0
 10
-107.657
 20
37.6568
 11
-108.652
 21
36.4445
  0
LINE
  8
0
 10
-108.652
 20
36.4445
 11
-109.391
 21
35.0615
  0
LINE
  8
0
 10
-109.391
 20
35.0615
 11
-109.846
 21
33.5607
  0
LINE
  8
0
 10
-109.846
 20
33.5607
 11
-110
 21
32
  0
LINE
  8
0
 10
-110
 20
32
 11
-110
 21
-112
  0
LINE
  8
0
 10
-110
 20
-112
 11
-109.846
 21
-113.561
  0
LINE
  8
0
 10
-109.846
 20
-113.561
 11
-109.391
 21
-115.061
  0
LINE
  8
0
 10
-109.391
 20
-115.061
 11
-108.652
 21
-116.445
  0
LINE
  8
0
 10
-108.652
 20
-116.445
 11
-107.657
 21
-117.657
  0
LINE
  8
0
 10
-107.657
 20
-117.657
 11
-106.445
 21
-118.652
  0
LINE
  8
0
 10
-106.445
 20
-118.652
 11
-105.061
 21
-119.391
  0
LINE
  8
0
 10
-105.061
 20
-119.391
 11
-103.561
 21
-119.846
  0
LINE
  8
0
 10
-103.561
 20
-119.846
 11
-102
 21
-120
  0
LINE
  8
0
 10
-102
 20
-120
 11
102
 21
-120
  0
LINE
  8
0
 10
102
 20
-120
 11
103.561
 21
-119.846
  0
LINE
  8
0
 10
103.586
 20
32.4545
 11
103.2
 21
32.6143
  0
LINE
  8
0
 10
103.2
 20
32.6143
 11
102.869
 21
32.8686
  0
LINE
  8
0
 10
102.869
 20
32.8686
 11
102.614
 21
33.2
  0
LINE
  8
0
 10
102.614
 20
33.2
 11
102.455
 21
33.5859
  0
LINE
  8
0
 10
102.455
 20
33.5859
 11
102.4
 21
34
  0
LINE
  8
0
 10
102.4
 20
34
 11
102.455
 21
34.4141
  0
LINE
  8
0
 10
102.455
 20
34.4141
 11
102.614
 21
34.8
  0
LINE
  8
0
 10
102.614
 20
34.8
 11
102.869
 21
35.1314
  0
LINE
  8
0
 10
102.869
 20
35.1314
 11
103.2
 21
35.3856
  0
LINE
  8
0
 10
103.2
 20
35.3856
 11
103.586
 21
35.5455
  0
LINE
  8
0
 10
103.586
 20
35.5455
 11
104
 21
35.6
  0
LINE
  8
0
 10
104
 20
35.6
 11
104.414
 21
35.5455
  0
LINE
  8
0
 10
104.414
 20
35.5455
 11
104.8
 21
35.3856
  0
LINE
  8
0
 10
104.8
 20
35.3856
 11
105.131
 21
35.1314
  0
LINE
  8
0
 10
105.131
 20
35.1314
 11
105.386
 21
34.8
  0
LINE
  8
0
 10
105.386
 20
34.8
 11
105.545
 21
34.4141
  0
LINE
  8
0
 10
105.545
 20
34.4141
 11
105.6
 21
34
  0
LINE
  8
0
 10
105.6
 20
34
 11
105.545
 21
33.5859
  0
LINE
  8
0
 10
105.545
 20
33.5859
 11
105.386
 21
33.2
  0
LINE
  8
0
 10
105.386
 20
33.2
 11
105.131
 21
32.8686
  0
LINE
  8
0
 10
105.131
 20
32.8686
 11
104.8
 21
32.6143
  0
LINE
  8
0
 10
104.8
 20
32.6143
 11
104.414
 21
32.4545
  0
LINE
  8
0
 10
104.414
 20
32.4545
 11
104
 21
32.4
  0
LINE
  8
0
 10
104
 20
32.4
 11
103.586
 21
32.4545
  0
LINE
  8
0
 10
-0.414108
 20
32.4545
 11
-0.799988
 21
32.6143
  0
LINE
  8
0
 10
-0.799988
 20
32.6143
 11
-1.13136
 21
32.8686
  0
LINE
  8
0
 10
-1.13136
 20
32.8686
 11
-1.38564
 21
33.2
  0
LINE
  8
0
 10
-1.38564
 20
33.2
 11
-1.54547
 21
33.5859
  0
LINE
  8
0
 10
-1.54547
 20
33.5859
 11
-1.59999
 21
34
  0
LINE
  8
0
 10
-1.59999
 20
34
 11
-1.54547
 21
34.4141
  0
LINE
  8
0
 10
-1.54547
 20
34.4141
 11
-1.38564
 21
34.8
  0
LINE
  8
0
 10
-1.38564
 20
34.8
 11
-1.13136
 21
35.1314
  0
LINE
  8
0
 10
-1.13136
 20
35.1314
 11
-0.799988
 21
35.3856
  0
LINE
  8
0
 10
-0.799988
 20
35.3856
 11
-0.414108
 21
35.5455
  0
LINE
  8
0
 10
-0.414108
 20
35.5455
 11
0
 21
35.6
  0
LINE
  8
0
 10
0
 20
35.6
 11
0.414108
 21
35.5455
  0
LINE
  8
0
 10
0.414108
 20
35.5455
 11
0.799988
 21
35.3856
  0
LINE
  8
0
 10
0.799988
 20
35.3856
 11
1.13136
 21
35.1314
  0
LINE
  8
0
 10
1.13136
 20
35.1314
 11
1.38564
 21
34.8
  0
LINE
  8
0
 10
1.38564
 20
34.8
 11
1.54547
 21
34.4141
  0
LINE
  8
0
 10
1.54547
 20
34.4141
 11
1.59999
 21
34
  0
LINE
  8
0
 10
1.59999
 20
34
 11
1.54547
 21
33.5859
  0
LINE
  8
0
 10
1.54547
 20
33.5859
 11
1.38564
 21
33.2
  0
LINE
  8
0
 10
1.38564
 20
33.2
 11
1.13136
 21
32.8686
  0
LINE
  8
0
 10
1.13136
 20
32.8686
 11
0.799988
 21
32.6143
  0
LINE
  8
0
 10
0.799988
 20
32.6143
 11
0.414108
 21
32.4545
  0
LINE
  8
0
 10
0.414108
 20
32.4545
 11
0
 21
32.4
  0
LINE
  8
0
 10
0
 20
32.4
 11
-0.414108
 21
32.4545
  0
LINE
  8
0
 10
-104.414
 20
32.4545
 11
-104.8
 21
32.6143
  0
LINE
  8
0
 10
-104.8
 20
32.6143
 11
-105.131
 21
32.8686
  0
LINE
  8
0
 10
-105.131
 20
32.8686
 11
-105.386
 21
33.2
  0
LINE
  8
0
 10
-105.386
 20
33.2
 11
-105.545
 21
33.5859
  0
LINE
  8
0
 10
-105.545
 20
33.5859
 11
-105.6
 21
34
  0
LINE
  8
0
 10
-105.6
 20
34
 11
-105.545
 21
34.4141
  0
LINE
  8
0
 10
-105.545
 20
34.4141
 11
-105.386
 21
34.8
  0
LINE
  8
0
 10
-105.386
 20
34.8
 11
-105.131
 21
35.1314
  0
LINE
  8
0
 10
-105.131
 20
35.1314
 11
-104.8
 21
35.3856
  0
LINE
  8
0
 10
-104.8
 20
35.3856
 11
-104.414
 21
35.5455
  0
LINE
  8
0
 10
-104.414
 20
35.5455
 11
-104
 21
35.6
  0
LINE
  8
0
 10
-104
 20
35.6
 11
-103.586
 21
35.5455
  0
LINE
  8
0
 10
-103.586
 20
35.5455
 11
-103.2
 21
35.3856
  0
LINE
  8
0
 10
-103.2
 20
35.3856
 11
-102.869
 21
35.1314
  0
LINE
  8
0
 10
-102.869
 20
35.1314
 11
-102.614
 21
34.8
  0
LINE
  8
0
 10
-102.614
 20
34.8
 11
-102.455
 21
34.4141
  0
LINE
  8
0
 10
-102.455
 20
34.4141
 11
-102.4
 21
34
  0
LINE
  8
0
 10
-102.4
 20
34
 11
-102.455
 21
33.5859
  0
LINE
  8
0
 10
-102.455
 20
33.5859
 11
-102.614
 21
33.2
  0
LINE
  8
0
 10
-102.614
 20
33.2
 11
-102.869
 21
32.8686
  0
LINE
  8
0
 10
-102.869
 20
32.8686
 11
-103.2
 21
32.6143
  0
LINE
  8
0
 10
-103.2
 20
32.6143
 11
-103.586
 21
32.4545
  0
LINE
  8
0
 10
-103.586
 20
32.4545
 11
-104
 21
32.4
  0
LINE
  8
0
 10
-104
 20
32.4
 11
-104.414
 21
32.4545
  0
LINE
  8
0
 10
-56.9141
 20
20.4545
 11
-57.3
 21
20.6143
  0
LINE
  8
0
 10
-57.3
 20
20.6143
 11
-57.6314
 21
20.8686
  0
LINE
  8
0
 10
-57.6314
 20
20.8686
 11
-57.8856
 21
21.2
  0
LINE
  8
0
 10
-57.8856
 20
21.2
 11
-58.0455
 21
21.5859
  0
LINE
  8
0
 10
-58.0455
 20
21.5859
 11
-58.1
 21
22
  0
LINE
  8
0
 10
-58.1
 20
22
 11
-58.0455
 21
22.4141
  0
LINE
  8
0
 10
-58.0455
 20
22.4141
 11
-57.8856
 21
22.8
  0
LINE
  8
0
 10
-57.8856
 20
22.8
 11
-57.6314
 21
23.1314
  0
LINE
  8
0
 10
-57.6314
 20
23.1314
 11
-57.3
 21
23.3856
  0
LINE
  8
0
 10
-57.3
 20
23.3856
 11
-56.9141
 21
23.5455
  0
LINE
  8
0
 10
-56.9141
 20
23.5455
 11
-56.5
 21
23.6
  0
LINE
  8
0
 10
-56.5
 20
23.6
 11
-56.0859
 21
23.5455
  0
LINE
  8
0
 10
-56.0859
 20
23.5455
 11
-55.7
 21
23.3856
  0
LINE
  8
0
 10
-55.7
 20
23.3856
 11
-55.3686
 21
23.1314
  0
LINE
  8
0
 10
-55.3686
 20
23.1314
 11
-55.1143
 21
22.8
  0
LINE
  8
0
 10
-55.1143
 20
22.8
 11
-54.9545
 21
22.4141
  0
LINE
  8
0
 10
-54.9545
 20
22.4141
 11
-54.9
 21
22
  0
LINE
  8
0
 10
-54.9
 20
22
 11
-54.9545
 21
21.5859
  0
LINE
  8
0
 10
-54.9545
 20
21.5859
 11
-55.1143
 21
21.2
  0
LINE
  8
0
 10
-55.1143
 20
21.2
 11
-55.3686
 21
20.8686
  0
LINE
  8
0
 10
-55.3686
 20
20.8686
 11
-55.7
 21
20.6143
  0
LINE
  8
0
 10
-55.7
 20
20.6143
 11
-56.0859
 21
20.4545
  0
LINE
  8
0
 10
-56.0859
 20
20.4545
 11
-56.5
 21
20.4
  0
LINE
  8
0
 10
-56.5
 20
20.4
 11
-56.9141
 21
20.4545
  0
LINE
  8
0
 10
56.0859
 20
20.4545
 11
55.7
 21
20.6143
  0
LINE
  8
0
 10
55.7
 20
20.6143
 11
55.3686
 21
20.8686
  0
LINE
  8
0
 10
55.3686
 20
20.8686
 11
55.1143
 21
21.2
  0
LINE
  8
0
 10
55.1143
 20
21.2
 11
54.9545
 21
21.5859
  0
LINE
  8
0
 10
54.9545
 20
21.5859
 11
54.9
 21
22
  0
LINE
  8
0
 10
54.9
 20
22
 11
54.9545
 21
22.4141
  0
LINE
  8
0
 10
54.9545
 20
22.4141
 11
55.1143
 21
22.8
  0
LINE
  8
0
 10
55.1143
 20
22.8
 11
55.3686
 21
23.1314
  0
LINE
  8
0
 10
55.3686
 20
23.1314
 11
55.7
 21
23.3856
  0
LINE
  8
0
 10
55.7
 20
23.3856
 11
56.0859
 21
23.5455
  0
LINE
  8
0
 10
56.0859
 20
23.5455
 11
56.5
 21
23.6
  0
LINE
  8
0
 10
56.5
 20
23.6
 11
56.9141
 21
23.5455
  0
LINE
  8
0
 10
56.9141
 20
23.5455
 11
57.3
 21
23.3856
  0
LINE
  8
0
 10
57.3
 20
23.3856
 11
57.6314
 21
23.1314
  0
LINE
  8
0
 10
57.6314
 20
23.1314
 11
57.8856
 21
22.8
  0
LINE
  8
0
 10
57.8856
 20
22.8
 11
58.0455
 21
22.4141
  0
LINE
  8
0
 10
58.0455
 20
22.4141
 11
58.1
 21
22
  0
LINE
  8
0
 10
58.1
 20
22
 11
58.0455
 21
21.5859
  0
LINE
  8
0
 10
58.0455
 20
21.5859
 11
57.8856
 21
21.2
  0
LINE
  8
0
 10
57.8856
 20
21.2
 11
57.6314
 21
20.8686
  0
LINE
  8
0
 10
57.6314
 20
20.8686
 11
57.3
 21
20.6143
  0
LINE
  8
0
 10
57.3
 20
20.6143
 11
56.9141
 21
20.4545
  0
LINE
  8
0
 10
56.9141
 20
20.4545
 11
56.5
 21
20.4
  0
LINE
  8
0
 10
56.5
 20
20.4
 11
56.0859
 21
20.4545
  0
LINE
  8
0
 10
-0.414108
 20
-1.54547
 11
-0.799988
 21
-1.38564
  0
LINE
  8
0
 10
-0.799988
 20
-1.38564
 11
-1.13136
 21
-1.13136
  0
LINE
  8
0
 10
-1.13136
 20
-1.13136
 11
-1.38564
 21
-0.799988
  0
LINE
  8
0
 10
-1.38564
 20
-0.799988
 11
-1.54547
 21
-0.414108
  0
LINE
  8
0
 10
-1.54547
 20
-0.414108
 11
-1.59999
 21
0
  0
LINE
  8
0
 10
-1.59999
 20
0
 11
-1.54547
 21
0.414108
  0
LINE
  8
0
 10
-1.54547
 20
0.414108
 11
-1.38564
 21
0.799988
  0
LINE
  8
0
 10
-1.38564
 20
0.799988
 11
-1.13136
 21
1.13136
  0
LINE
  8
0
 10
-1.13136
 20
1.13136
 11
-0.799988
 21
1.38564
  0
LINE
  8
0
 10
-0.799988
 20
1.38564
 11
-0.414108
 21
1.54547
  0
LINE
  8
0
 10
-0.414108
 20
1.54547
 11
0
 21
1.59999
  0
LINE
  8
0
 10
0
 20
1.59999
 11
0.414108
 21
1.54547
  0
LINE
  8
0
 10
0.414108
 20
1.54547
 11
0.799988
 21
1.38564
  0
LINE
  8
0
 10
0.799988
 20
1.38564
 11
1.13136
 21
1.13136
  0
LINE
  8
0
 10
1.13136
 20
1.13136
 11
1.38564
 21
0.799988
  0
LINE
  8
0
 10
1.38564
 20
0.799988
 11
1.54547
 21
0.414108
  0
LINE
  8
0
 10
1.54547
 20
0.414108
 11
1.59999
 21
0
  0
LINE
  8
0
 10
1.59999
 20
0
 11
1.54547
 21
-0.414108
  0
LINE
  8
0
 10
1.54547
 20
-0.414108
 11
1.38564
 21
-0.799988
  0
LINE
  8
0
 10
1.38564
 20
-0.799988
 11
1.13136
 21
-1.13136
  0
LINE
  8
0
 10
1.13136
 20
-1.13136
 11
0.799988
 21
-1.38564
  0
LINE
  8
0
 10
0.799988
 20
-1.38564
 11
0.414108
 21
-1.54547
  0
LINE
  8
0
 10
0.414108
 20
-1.54547
 11
0
 21
-1.59999
  0
LINE
  8
0
 10
0
 20
-1.59999
 11
-0.414108
 21
-1.54547
  0
LINE
  8
0
 10
-43.5
 20
-23
 11
-45.0607
 21
-22.8463
  0
LINE
  8
0
 10
-45.0607
 20
-22.8463
 11
-46.5615
 21
-22.391
  0
LINE
  8
0
 10
-46.5615
 20
-22.391
 11
-47.9446
 21
-21.6517
  0
LINE
  8
0
 10
-47.9446
 20
-21.6517
 11
-49.1569
 21
-20.6568
  0
LINE
  8
0
 10
-49.1569
 20
-20.6568
 11
-50.1518
 21
-19.4445
  0
LINE
  8
0
 10
-50.1518
 20
-19.4445
 11
-50.8911
 21
-18.0615
  0
LINE
  8
0
 10
-50.8911
 20
-18.0615
 11
-51.3463
 21
-16.5607
  0
LINE
  8
0
 10
-51.3463
 20
-16.5607
 11
-51.5
 21
-15
  0
LINE
  8
0
 10
-51.5
 20
-15
 11
-51.5
 21
-13
  0
LINE
  8
0
 10
-51.5
 20
-13
 11
-51.3463
 21
-11.4393
  0
LINE
  8
0
 10
-51.3463
 20
-11.4393
 11
-50.8911
 21
-9.93852
  0
LINE
  8
0
 10
-50.8911
 20
-9.93852
 11
-50.1518
 21
-8.55544
  0
LINE
  8
0
 10
-50.1518
 20
-8.55544
 11
-49.1569
 21
-7.34314
  0
LINE
  8
0
 10
-49.1569
 20
-7.34314
 11
-47.9446
 21
-6.34824
  0
LINE
  8
0
 10
-47.9446
 20
-6.34824
 11
-46.5615
 21
-5.60896
  0
LINE
  8
0
 10
-46.5615
 20
-5.60896
 11
-45.0607
 21
-5.15372
  0
LINE
  8
0
 10
-45.0607
 20
-5.15372
 11
-43.5
 21
-5
  0
LINE
  8
0
 10
-43.5
 20
-5
 11
43.5
 21
-5
  0
LINE
  8
0
 10
43.5
 20
-5
 11
45.0607
 21
-5.15372
  0
LINE
  8
0
 10
45.0607
 20
-5.15372
 11
46.5614
 21
-5.60896
  0
LINE
  8
0
 10
46.5614
 20
-5.60896
 11
47.9445
 21
-6.34824
  0
LINE
  8
0
 10
47.9445
 20
-6.34824
 11
49.1568
 21
-7.34314
  0
LINE
  8
0
 10
49.1568
 20
-7.34314
 11
50.1517
 21
-8.55544
  0
LINE
  8
0
 10
50.1517
 20
-8.55544
 11
50.891
 21
-9.93852
  0
LINE
  8
0
 10
50.891
 20
-9.93852
 11
51.3462
 21
-11.4393
  0
LINE
  8
0
 10
51.3462
 20
-11.4393
 11
51.5
 21
-13
  0
LINE
  8
0
 10
51.5
 20
-13
 11
51.5
 21
-15
  0
LINE
  8
0
 10
51.5
 20
-15
 11
51.3462
 21
-16.5607
  0
LINE
  8
0
 10
51.3462
 20
-16.5607
 11
50.891
 21
-18.0615
  0
LINE
  8
0
 10
50.891
 20
-18.0615
 11
50.1517
 21
-19.4445
  0
LINE
  8
0
 10
50.1517
 20
-19.4445
 11
49.1568
 21
-20.6568
  0
LINE
  8
0
 10
49.1568
 20
-20.6568
 11
47.9445
 21
-21.6517
  0
LINE
  8
0
 10
47.9445
 20
-21.6517
 11
46.5614
 21
-22.391
  0
LINE
  8
0
 10
46.5614
 20
-22.391
 11
45.0607
 21
-22.8463
  0
LINE
  8
0
 10
45.0607
 20
-22.8463
 11
43.5
 21
-23
  0
LINE
  8
0
 10
43.5
 20
-23
 11
-43.5
 21
-23
  0
LINE
  8
0
 10
-56.9141
 20
-23.5455
 11
-57.3
 21
-23.3856
  0
LINE
  8
0
 10
-57.3
 20
-23.3856
 11
-57.6314
 21
-23.1314
  0
LINE
  8
0
 10
-57.6314
 20
-23.1314
 11
-57.8856
 21
-22.8
  0
LINE
  8
0
 10
-57.8856
 20
-22.8
 11
-58.0455
 21
-22.4141
  0
LINE
  8
0
 10
-58.0455
 20
-22.4141
 11
-58.1
 21
-22
  0
LINE
  8
0
 10
-58.1
 20
-22
 11
-58.0455
 21
-21.5859
  0
LINE
  8
0
 10
-58.0455
 20
-21.5859
 11
-57.8856
 21
-21.2
  0
LINE
  8
0
 10
-57.8856
 20
-21.2
 11
-57.6314
 21
-20.8686
  0
LINE
  8
0
 10
-57.6314
 20
-20.8686
 11
-57.3
 21
-20.6143
  0
LINE
  8
0
 10
-57.3
 20
-20.6143
 11
-56.9141
 21
-20.4545
  0
LINE
  8
0
 10
-56.9141
 20
-20.4545
 11
-56.5
 21
-20.4
  0
LINE
  8
0
 10
-56.5
 20
-20.4
 11
-56.0859
 21
-20.4545
  0
LINE
  8
0
 10
-56.0859
 20
-20.4545
 11
-55.7
 21
-20.6143
  0
LINE
  8
0
 10
-55.7
 20
-20.6143
 11
-55.3686
 21
-20.8686
  0
LINE
  8
0
 10
-55.3686
 20
-20.8686
 11
-55.1143
 21
-21.2
  0
LINE
  8
0
 10
-55.1143
 20
-21.2
 11
-54.9545
 21
-21.5859
  0
LINE
  8
0
 10
-54.9545
 20
-21.5859
 11
-54.9
 21
-22
  0
LINE
  8
0
 10
-54.9
 20
-22
 11
-54.9545
 21
-22.4141
  0
LINE
  8
0
 10
-54.9545
 20
-22.4141
 11
-55.1143
 21
-22.8
  0
LINE
  8
0
 10
-55.1143
 20
-22.8
 11
-55.3686
 21
-23.1314
  0
LINE
  8
0
 10
-55.3686
 20
-23.1314
 11
-55.7
 21
-23.3856
  0
LINE
  8
0
 10
-55.7
 20
-23.3856
 11
-56.0859
 21
-23.5455
  0
LINE
  8
0
 10
-56.0859
 20
-23.5455
 11
-56.5
 21
-23.6
  0
LINE
  8
0
 10
-56.5
 20
-23.6
 11
-56.9141
 21
-23.5455
  0
LINE
  8
0
 10
56.0859
 20
-23.5455
 11
55.7
 21
-23.3856
  0
LINE
  8
0
 10
55.7
 20
-23.3856
 11
55.3686
 21
-23.1314
  0
LINE
  8
0
 10
55.3686
 20
-23.1314
 11
55.1143
 21
-22.8
  0
LINE
  8
0
 10
55.1143
 20
-22.8
 11
54.9545
 21
-22.4141
  0
LINE
  8
0
 10
54.9545
 20
-22.4141
 11
54.9
 21
-22
  0
LINE
  8
0
 10
54.9
 20
-22
 11
54.9545
 21
-21.5859
  0
LINE
  8
0
 10
54.9545
 20
-21.5859
 11
55.1143
 21
-21.2
  0
LINE
  8
0
 10
55.1143
 20
-21.2
 11
55.3686
 21
-20.8686
  0
LINE
  8
0
 10
55.3686
 20
-20.8686
 11
55.7
 21
-20.6143
  0
LINE
  8
0
 10
55.7
 20
-20.6143
 11
56.0859
 21
-20.4545
  0
LINE
  8
0
 10
56.0859
 20
-20.4545
 11
56.5
 21
-20.4
  0
LINE
  8
0
 10
56.5
 20
-20.4
 11
56.9141
 21
-20.4545
  0
LINE
  8
0
 10
56.9141
 20
-20.4545
 11
57.3
 21
-20.6143
  0
LINE
  8
0
 10
57.3
 20
-20.6143
 11
57.6314
 21
-20.8686
  0
LINE
  8
0
 10
57.6314
 20
-20.8686
 11
57.8856
 21
-21.2
  0
LINE
  8
0
 10
57.8856
 20
-21.2
 11
58.0455
 21
-21.5859
  0
LINE
  8
0
 10
58.0455
 20
-21.5859
 11
58.1
 21
-22
  0
LINE
  8
0
 10
58.1
 20
-22
 11
58.0455
 21
-22.4141
  0
LINE
  8
0
 10
58.0455
 20
-22.4141
 11
57.8856
 21
-22.8
  0
LINE
  8
0
 10
57.8856
 20
-22.8
 11
57.6314
 21
-23.1314
  0
LINE
  8
0
 10
57.6314
 20
-23.1314
 11
57.3
 21
-23.3856
  0
LINE
  8
0
 10
57.3
 20
-23.3856
 11
56.9141
 21
-23.5455
  0
LINE
  8
0
 10
56.9141
 20
-23.5455
 11
56.5
 21
-23.6
  0
LINE
  8
0
 10
56.5
 20
-23.6
 11
56.0859
 21
-23.5455
  0
LINE
  8
0
 10
-79.9101
 20
-48.8835
 11
-81.7622
 21
-48.3872
  0
LINE
  8
0
 10
-81.7622
 20
-48.3872
 11
-83.5
 21
-47.5769
  0
LINE
  8
0
 10
-83.5
 20
-47.5769
 11
-85.0707
 21
-46.4771
  0
LINE
  8
0
 10
-85.0707
 20
-46.4771
 11
-86.4265
 21
-45.1213
  0
LINE
  8
0
 10
-86.4265
 20
-45.1213
 11
-87.5263
 21
-43.5506
  0
LINE
  8
0
 10
-87.5263
 20
-43.5506
 11
-88.3366
 21
-41.8128
  0
LINE
  8
0
 10
-88.3366
 20
-41.8128
 11
-88.8329
 21
-39.9608
  0
LINE
  8
0
 10
-88.8329
 20
-39.9608
 11
-89
 21
-38.0506
  0
LINE
  8
0
 10
-89
 20
-38.0506
 11
-88.8329
 21
-36.1405
  0
LINE
  8
0
 10
-88.8329
 20
-36.1405
 11
-88.3366
 21
-34.2884
  0
LINE
  8
0
 10
-88.3366
 20
-34.2884
 11
-87.5263
 21
-32.5506
  0
LINE
  8
0
 10
-87.5263
 20
-32.5506
 11
-86.4265
 21
-30.9799
  0
LINE
  8
0
 10
-86.4265
 20
-30.9799
 11
-85.0707
 21
-29.6241
  0
LINE
  8
0
 10
-85.0707
 20
-29.6241
 11
-83.5
 21
-28.5243
  0
LINE
  8
0
 10
-83.5
 20
-28.5243
 11
-81.7622
 21
-27.714
  0
LINE
  8
0
 10
-81.7622
 20
-27.714
 11
-79.9101
 21
-27.2177
  0
LINE
  8
0
 10
-79.9101
 20
-27.2177
 11
-78
 21
-27.0506
  0
LINE
  8
0
 10
-78
 20
-27.0506
 11
-76.0899
 21
-27.2177
  0
LINE
  8
0
 10
-76.0899
 20
-27.2177
 11
-74.2378
 21
-27.714
  0
LINE
  8
0
 10
-74.2378
 20
-27.714
 11
-72.5
 21
-28.5243
  0
LINE
  8
0
 10
-72.5
 20
-28.5243
 11
-70.9293
 21
-29.6241
  0
LINE
  8
0
 10
-70.9293
 20
-29.6241
 11
-69.5735
 21
-30.9799
  0
LINE
  8
0
 10
-69.5735
 20
-30.9799
 11
-68.4737
 21
-32.5506
  0
LINE
  8
0
 10
-68.4737
 20
-32.5506
 11
-67.6634
 21
-34.2884
  0
LINE
  8
0
 10
-67.6634
 20
-34.2884
 11
-67.1671
 21
-36.1405
  0
LINE
  8
0
 10
-67.1671
 20
-36.1405
 11
-67
 21
-38.0506
  0
LINE
  8
0
 10
-67
 20
-38.0506
 11
-67.1671
 21
-39.9608
  0
LINE
  8
0
 10
-67.1671
 20
-39.9608
 11
-67.6634
 21
-41.8128
  0
LINE
  8
0
 10
-67.6634
 20
-41.8128
 11
-68.4737
 21
-43.5506
  0
LINE
  8
0
 10
-68.4737
 20
-43.5506
 11
-69.5735
 21
-45.1213
  0
LINE
  8
0
 10
-69.5735
 20
-45.1213
 11
-70.9293
 21
-46.4771
  0
LINE
  8
0
 10
-70.9293
 20
-46.4771
 11
-72.5
 21
-47.5769
  0
LINE
  8
0
 10
-72.5
 20
-47.5769
 11
-74.2378
 21
-48.3872
  0
LINE
  8
0
 10
-74.2378
 20
-48.3872
 11
-76.0899
 21
-48.8835
  0
LINE
  8
0
 10
-76.0899
 20
-48.8835
 11
-78
 21
-49.0506
  0
LINE
  8
0
 10
-78
 20
-49.0506
 11
-79.9101
 21
-48.8835
  0
LINE
  8
0
 10
76.7059
 20
-42.8802
 11
75.5
 21
-42.3808
  0
LINE
  8
0
 10
75.5
 20
-42.3808
 11
74.4645
 21
-41.5862
  0
LINE
  8
0
 10
74.4645
 20
-41.5862
 11
73.6699
 21
-40.5506
  0
LINE
  8
0
 10
73.6699
 20
-40.5506
 11
73.1704
 21
-39.3447
  0
LINE
  8
0
 10
73.1704
 20
-39.3447
 11
73
 21
-38.0506
  0
LINE
  8
0
 10
73
 20
-38.0506
 11
73.1704
 21
-36.7565
  0
LINE
  8
0
 10
73.1704
 20
-36.7565
 11
73.6699
 21
-35.5506
  0
LINE
  8
0
 10
73.6699
 20
-35.5506
 11
74.4645
 21
-34.5151
  0
LINE
  8
0
 10
74.4645
 20
-34.5151
 11
75.5
 21
-33.7205
  0
LINE
  8
0
 10
75.5
 20
-33.7205
 11
76.7059
 21
-33.221
  0
LINE
  8
0
 10
76.7059
 20
-33.221
 11
78
 21
-33.0506
  0
LINE
  8
0
 10
78
 20
-33.0506
 11
79.2941
 21
-33.221
  0
LINE
  8
0
 10
79.2941
 20
-33.221
 11
80.5
 21
-33.7205
  0
LINE
  8
0
 10
80.5
 20
-33.7205
 11
81.5355
 21
-34.5151
  0
LINE
  8
0
 10
81.5355
 20
-34.5151
 11
82.3301
 21
-35.5506
  0
LINE
  8
0
 10
82.3301
 20
-35.5506
 11
82.8296
 21
-36.7565
  0
LINE
  8
0
 10
82.8296
 20
-36.7565
 11
83
 21
-38.0506
  0
LINE
  8
0
 10
83
 20
-38.0506
 11
82.8296
 21
-39.3447
  0
LINE
  8
0
 10
82.8296
 20
-39.3447
 11
82.3301
 21
-40.5506
  0
LINE
  8
0
 10
82.3301
 20
-40.5506
 11
81.5355
 21
-41.5862
  0
LINE
  8
0
 10
81.5355
 20
-41.5862
 11
80.5
 21
-42.3808
  0
LINE
  8
0
 10
80.5
 20
-42.3808
 11
79.2941
 21
-42.8802
  0
LINE
  8
0
 10
79.2941
 20
-42.8802
 11
78
 21
-43.0506
  0
LINE
  8
0
 10
78
 20
-43.0506
 11
76.7059
 21
-42.8802
  0
LINE
  8
0
 10
-7.77644
 20
-40.9484
 11
-8.5
 21
-40.6487
  0
LINE
  8
0
 10
-8.5
 20
-40.6487
 11
-9.12131
 21
-40.1719
  0
LINE
  8
0
 10
-9.12131
 20
-40.1719
 11
-9.59807
 21
-39.5506
  0
LINE
  8
0
 10
-9.59807
 20
-39.5506
 11
-9.89777
 21
-38.8271
  0
LINE
  8
0
 10
-9.89777
 20
-38.8271
 11
-10
 21
-38.0506
  0
LINE
  8
0
 10
-10
 20
-38.0506
 11
-9.89777
 21
-37.2742
  0
LINE
  8
0
 10
-9.89777
 20
-37.2742
 11
-9.59807
 21
-36.5506
  0
LINE
  8
0
 10
-9.59807
 20
-36.5506
 11
-9.12131
 21
-35.9293
  0
LINE
  8
0
 10
-9.12131
 20
-35.9293
 11
-8.5
 21
-35.4525
  0
LINE
  8
0
 10
-8.5
 20
-35.4525
 11
-7.77644
 21
-35.1528
  0
LINE
  8
0
 10
-7.77644
 20
-35.1528
 11
-7
 21
-35.0506
  0
LINE
  8
0
 10
-7
 20
-35.0506
 11
-6.22354
 21
-35.1528
  0
LINE
  8
0
 10
-6.22354
 20
-35.1528
 11
-5.5
 21
-35.4525
  0
LINE
  8
0
 10
-5.5
 20
-35.4525
 11
-4.87868
 21
-35.9293
  0
LINE
  8
0
 10
-4.87868
 20
-35.9293
 11
-4.40192
 21
-36.5506
  0
LINE
  8
0
 10
-4.40192
 20
-36.5506
 11
-4.10222
 21
-37.2742
  0
LINE
  8
0
 10
-4.10222
 20
-37.2742
 11
-4
 21
-38.0506
  0
LINE
  8
0
 10
-4
 20
-38.0506
 11
-4.10222
 21
-38.8271
  0
LINE
  8
0
 10
-4.10222
 20
-38.8271
 11
-4.40192
 21
-39.5506
  0
LINE
  8
0
 10
-4.40192
 20
-39.5506
 11
-4.87868
 21
-40.1719
  0
LINE
  8
0
 10
-4.87868
 20
-40.1719
 11
-5.5
 21
-40.6487
  0
LINE
  8
0
 10
-5.5
 20
-40.6487
 11
-6.22354
 21
-40.9484
  0
LINE
  8
0
 10
-6.22354
 20
-40.9484
 11
-7
 21
-41.0506
  0
LINE
  8
0
 10
-7
 20
-41.0506
 11
-7.77644
 21
-40.9484
  0
LINE
  8
0
 10
-29.8978
 20
-38.8271
 11
-30
 21
-38.0506
  0
LINE
  8
0
 10
-30
 20
-38.0506
 11
-29.8978
 21
-37.2742
  0
LINE
  8
0
 10
-29.8978
 20
-37.2742
 11
-29.5981
 21
-36.5506
  0
LINE
  8
0
 10
-29.5981
 20
-36.5506
 11
-29.1213
 21
-35.9293
  0
LINE
  8
0
 10
-29.1213
 20
-35.9293
 11
-28.5
 21
-35.4525
  0
LINE
  8
0
 10
-28.5
 20
-35.4525
 11
-27.7765
 21
-35.1528
  0
LINE
  8
0
 10
-27.7765
 20
-35.1528
 11
-27
 21
-35.0506
  0
LINE
  8
0
 10
-27
 20
-35.0506
 11
-26.2235
 21
-35.1528
  0
LINE
  8
0
 10
-26.2235
 20
-35.1528
 11
-25.5
 21
-35.4525
  0
LINE
  8
0
 10
-25.5
 20
-35.4525
 11
-24.8787
 21
-35.9293
  0
LINE
  8
0
 10
-24.8787
 20
-35.9293
 11
-24.4019
 21
-36.5506
  0
LINE
  8
0
 10
-24.4019
 20
-36.5506
 11
-24.1022
 21
-37.2742
  0
LINE
  8
0
 10
-24.1022
 20
-37.2742
 11
-24
 21
-38.0506
  0
LINE
  8
0
 10
-24
 20
-38.0506
 11
-24.1022
 21
-38.8271
  0
LINE
  8
0
 10
-24.1022
 20
-38.8271
 11
-24.4019
 21
-39.5506
  0
LINE
  8
0
 10
-24.4019
 20
-39.5506
 11
-24.8787
 21
-40.1719
  0
LINE
  8
0
 10
-24.8787
 20
-40.1719
 11
-25.5
 21
-40.6487
  0
LINE
  8
0
 10
-25.5
 20
-40.6487
 11
-26.2235
 21
-40.9484
  0
LINE
  8
0
 10
-26.2235
 20
-40.9484
 11
-27
 21
-41.0506
  0
LINE
  8
0
 10
-27
 20
-41.0506
 11
-27.7765
 21
-40.9484
  0
LINE
  8
0
 10
-27.7765
 20
-40.9484
 11
-28.5
 21
-40.6487
  0
LINE
  8
0
 10
-28.5
 20
-40.6487
 11
-29.1213
 21
-40.1719
  0
LINE
  8
0
 10
-29.1213
 20
-40.1719
 11
-29.5981
 21
-39.5506
  0
LINE
  8
0
 10
-29.5981
 20
-39.5506
 11
-29.8978
 21
-38.8271
  0
LINE
  8
0
 10
12.2235
 20
-40.9484
 11
11.5
 21
-40.6487
  0
LINE
  8
0
 10
11.5
 20
-40.6487
 11
10.8787
 21
-40.1719
  0
LINE
  8
0
 10
10.8787
 20
-40.1719
 11
10.4019
 21
-39.5506
  0
LINE
  8
0
 10
10.4019
 20
-39.5506
 11
10.1022
 21
-38.8271
  0
LINE
  8
0
 10
10.1022
 20
-38.8271
 11
9.99998
 21
-38.0506
  0
LINE
  8
0
 10
9.99998
 20
-38.0506
 11
10.1022
 21
-37.2742
  0
LINE
  8
0
 10
10.1022
 20
-37.2742
 11
10.4019
 21
-36.5506
  0
LINE
  8
0
 10
10.4019
 20
-36.5506
 11
10.8787
 21
-35.9293
  0
LINE
  8
0
 10
10.8787
 20
-35.9293
 11
11.5
 21
-35.4525
  0
LINE
  8
0
 10
11.5
 20
-35.4525
 11
12.2235
 21
-35.1528
  0
LINE
  8
0
 10
12.2235
 20
-35.1528
 11
13
 21
-35.0506
  0
LINE
  8
0
 10
13
 20
-35.0506
 11
13.7764
 21
-35.1528
  0
LINE
  8
0
 10
13.7764
 20
-35.1528
 11
14.5
 21
-35.4525
  0
LINE
  8
0
 10
14.5
 20
-35.4525
 11
15.1213
 21
-35.9293
  0
LINE
  8
0
 10
15.1213
 20
-35.9293
 11
15.5981
 21
-36.5506
  0
LINE
  8
0
 10
15.5981
 20
-36.5506
 11
15.8978
 21
-37.2742
  0
LINE
  8
0
 10
15.8978
 20
-37.2742
 11
16
 21
-38.0506
  0
LINE
  8
0
 10
16
 20
-38.0506
 11
15.8978
 21
-38.8271
  0
LINE
  8
0
 10
15.8978
 20
-38.8271
 11
15.5981
 21
-39.5506
  0
LINE
  8
0
 10
15.5981
 20
-39.5506
 11
15.1213
 21
-40.1719
  0
LINE
  8
0
 10
15.1213
 20
-40.1719
 11
14.5
 21
-40.6487
  0
LINE
  8
0
 10
14.5
 20
-40.6487
 11
13.7764
 21
-40.9484
  0
LINE
  8
0
 10
13.7764
 20
-40.9484
 11
13
 21
-41.0506
  0
LINE
  8
0
 10
13
 20
-41.0506
 11
12.2235
 21
-40.9484
  0
LINE
  8
0
 10
103.586
 20
-41.5455
 11
103.2
 21
-41.3856
  0
LINE
  8
0
 10
103.2
 20
-41.3856
 11
102.869
 21
-41.1314
  0
LINE
  8
0
 10
102.869
 20
-41.1314
 11
102.614
 21
-40.8
  0
LINE
  8
0
 10
102.614
 20
-40.8
 11
102.455
 21
-40.4141
  0
LINE
  8
0
 10
102.455
 20
-40.4141
 11
102.4
 21
-40
  0
LINE
  8
0
 10
102.4
 20
-40
 11
102.455
 21
-39.5859
  0
LINE
  8
0
 10
102.455
 20
-39.5859
 11
102.614
 21
-39.2
  0
LINE
  8
0
 10
102.614
 20
-39.2
 11
102.869
 21
-38.8686
  0
LINE
  8
0
 10
102.869
 20
-38.8686
 11
103.2
 21
-38.6143
  0
LINE
  8
0
 10
103.2
 20
-38.6143
 11
103.586
 21
-38.4545
  0
LINE
  8
0
 10
103.586
 20
-38.4545
 11
104
 21
-38.4
  0
LINE
  8
0
 10
104
 20
-38.4
 11
104.414
 21
-38.4545
  0
LINE
  8
0
 10
104.414
 20
-38.4545
 11
104.8
 21
-38.6143
  0
LINE
  8
0
 10
104.8
 20
-38.6143
 11
105.131
 21
-38.8686
  0
LINE
  8
0
 10
105.131
 20
-38.8686
 11
105.386
 21
-39.2
  0
LINE
  8
0
 10
105.386
 20
-39.2
 11
105.545
 21
-39.5859
  0
LINE
  8
0
 10
105.545
 20
-39.5859
 11
105.6
 21
-40
  0
LINE
  8
0
 10
105.6
 20
-40
 11
105.545
 21
-40.4141
  0
LINE
  8
0
 10
105.545
 20
-40.4141
 11
105.386
 21
-40.8
  0
LINE
  8
0
 10
105.386
 20
-40.8
 11
105.131
 21
-41.1314
  0
LINE
  8
0
 10
105.131
 20
-41.1314
 11
104.8
 21
-41.3856
  0
LINE
  8
0
 10
104.8
 20
-41.3856
 11
104.414
 21
-41.5455
  0
LINE
  8
0
 10
104.414
 20
-41.5455
 11
104
 21
-41.6
  0
LINE
  8
0
 10
104
 20
-41.6
 11
103.586
 21
-41.5455
  0
LINE
  8
0
 10
-104.414
 20
-41.5455
 11
-104.8
 21
-41.3856
  0
LINE
  8
0
 10
-104.8
 20
-41.3856
 11
-105.131
 21
-41.1314
  0
LINE
  8
0
 10
-105.131
 20
-41.1314
 11
-105.386
 21
-40.8
  0
LINE
  8
0
 10
-105.386
 20
-40.8
 11
-105.545
 21
-40.4141
  0
LINE
  8
0
 10
-105.545
 20
-40.4141
 11
-105.6
 21
-40
  0
LINE
  8
0
 10
-105.6
 20
-40
 11
-105.545
 21
-39.5859
  0
LINE
  8
0
 10
-105.545
 20
-39.5859
 11
-105.386
 21
-39.2
  0
LINE
  8
0
 10
-105.386
 20
-39.2
 11
-105.131
 21
-38.8686
  0
LINE
  8
0
 10
-105.131
 20
-38.8686
 11
-104.8
 21
-38.6143
  0
LINE
  8
0
 10
-104.8
 20
-38.6143
 11
-104.414
 21
-38.4545
  0
LINE
  8
0
 10
-104.414
 20
-38.4545
 11
-104
 21
-38.4
  0
LINE
  8
0
 10
-104
 20
-38.4
 11
-103.586
 21
-38.4545
  0
LINE
  8
0
 10
-103.586
 20
-38.4545
 11
-103.2
 21
-38.6143
  0
LINE
  8
0
 10
-103.2
 20
-38.6143
 11
-102.869
 21
-38.8686
  0
LINE
  8
0
 10
-102.869
 20
-38.8686
 11
-102.614
 21
-39.2
  0
LINE
  8
0
 10
-102.614
 20
-39.2
 11
-102.455
 21
-39.5859
  0
LINE
  8
0
 10
-102.455
 20
-39.5859
 11
-102.4
 21
-40
  0
LINE
  8
0
 10
-102.4
 20
-40
 11
-102.455
 21
-40.4141
  0
LINE
  8
0
 10
-102.455
 20
-40.4141
 11
-102.614
 21
-40.8
  0
LINE
  8
0
 10
-102.614
 20
-40.8
 11
-102.869
 21
-41.1314
  0
LINE
  8
0
 10
-102.869
 20
-41.1314
 11
-103.2
 21
-41.3856
  0
LINE
  8
0
 10
-103.2
 20
-41.3856
 11
-103.586
 21
-41.5455
  0
LINE
  8
0
 10
-103.586
 20
-41.5455
 11
-104
 21
-41.6
  0
LINE
  8
0
 10
-104
 20
-41.6
 11
-104.414
 21
-41.5455
  0
LINE
  8
0
 10
10.4019
 20
-50.5
 11
10.1022
 21
-49.7765
  0
LINE
  8
0
 10
10.1022
 20
-49.7765
 11
9.99998
 21
-49
  0
LINE
  8
0
 10
9.99998
 20
-49
 11
10.1022
 21
-48.2235
  0
LINE
  8
0
 10
10.1022
 20
-48.2235
 11
10.4019
 21
-47.5
  0
LINE
  8
0
 10
10.4019
 20
-47.5
 11
10.8787
 21
-46.8787
  0
LINE
  8
0
 10
10.8787
 20
-46.8787
 11
11.5
 21
-46.4019
  0
LINE
  8
0
 10
11.5
 20
-46.4019
 11
12.2235
 21
-46.1022
  0
LINE
  8
0
 10
12.2235
 20
-46.1022
 11
13
 21
-46
  0
LINE
  8
0
 10
13
 20
-46
 11
13.7764
 21
-46.1022
  0
LINE
  8
0
 10
13.7764
 20
-46.1022
 11
14.5
 21
-46.4019
  0
LINE
  8
0
 10
14.5
 20
-46.4019
 11
15.1213
 21
-46.8787
  0
LINE
  8
0
 10
15.1213
 20
-46.8787
 11
15.5981
 21
-47.5
  0
LINE
  8
0
 10
15.5981
 20
-47.5
 11
15.8978
 21
-48.2235
  0
LINE
  8
0
 10
15.8978
 20
-48.2235
 11
16
 21
-49
  0
LINE
  8
0
 10
16
 20
-49
 11
15.8978
 21
-49.7765
  0
LINE
  8
0
 10
15.8978
 20
-49.7765
 11
15.5981
 21
-50.5
  0
LINE
  8
0
 10
15.5981
 20
-50.5
 11
15.1213
 21
-51.1213
  0
LINE
  8
0
 10
15.1213
 20
-51.1213
 11
14.5
 21
-51.5981
  0
LINE
  8
0
 10
14.5
 20
-51.5981
 11
13.7764
 21
-51.8978
  0
LINE
  8
0
 10
13.7764
 20
-51.8978
 11
13
 21
-52
  0
LINE
  8
0
 10
13
 20
-52
 11
12.2235
 21
-51.8978
  0
LINE
  8
0
 10
12.2235
 20
-51.8978
 11
11.5
 21
-51.5981
  0
LINE
  8
0
 10
11.5
 20
-51.5981
 11
10.8787
 21
-51.1213
  0
LINE
  8
0
 10
10.8787
 20
-51.1213
 11
10.4019
 21
-50.5
  0
LINE
  8
0
 10
-29.1213
 20
-46.8787
 11
-28.5
 21
-46.4019
  0
LINE
  8
0
 10
-28.5
 20
-46.4019
 11
-27.7765
 21
-46.1022
  0
LINE
  8
0
 10
-27.7765
 20
-46.1022
 11
-27
 21
-46
  0
LINE
  8
0
 10
-27
 20
-46
 11
-26.2235
 21
-46.1022
  0
LINE
  8
0
 10
-26.2235
 20
-46.1022
 11
-25.5
 21
-46.4019
  0
LINE
  8
0
 10
-25.5
 20
-46.4019
 11
-24.8787
 21
-46.8787
  0
LINE
  8
0
 10
-24.8787
 20
-46.8787
 11
-24.4019
 21
-47.5
  0
LINE
  8
0
 10
-24.4019
 20
-47.5
 11
-24.1022
 21
-48.2235
  0
LINE
  8
0
 10
-24.1022
 20
-48.2235
 11
-24
 21
-49
  0
LINE
  8
0
 10
-24
 20
-49
 11
-24.1022
 21
-49.7765
  0
LINE
  8
0
 10
-24.1022
 20
-49.7765
 11
-24.4019
 21
-50.5
  0
LINE
  8
0
 10
-24.4019
 20
-50.5
 11
-24.8787
 21
-51.1213
  0
LINE
  8
0
 10
-24.8787
 20
-51.1213
 11
-25.5
 21
-51.5981
  0
LINE
  8
0
 10
-25.5
 20
-51.5981
 11
-26.2235
 21
-51.8978
  0
LINE
  8
0
 10
-26.2235
 20
-51.8978
 11
-27
 21
-52
  0
LINE
  8
0
 10
-27
 20
-52
 11
-27.7765
 21
-51.8978
  0
LINE
  8
0
 10
-27.7765
 20
-51.8978
 11
-28.5
 21
-51.5981
  0
LINE
  8
0
 10
-28.5
 20
-51.5981
 11
-29.1213
 21
-51.1213
  0
LINE
  8
0
 10
-29.1213
 20
-51.1213
 11
-29.5981
 21
-50.5
  0
LINE
  8
0
 10
-29.5981
 20
-50.5
 11
-29.8978
 21
-49.7765
  0
LINE
  8
0
 10
-29.8978
 20
-49.7765
 11
-30
 21
-49
  0
LINE
  8
0
 10
-30
 20
-49
 11
-29.8978
 21
-48.2235
  0
LINE
  8
0
 10
-29.8978
 20
-48.2235
 11
-29.5981
 21
-47.5
  0
LINE
  8
0
 10
-29.5981
 20
-47.5
 11
-29.1213
 21
-46.8787
  0
LINE
  8
0
 10
-84.5
 20
-104.101
 11
-86.0607
 21
-103.948
  0
LINE
  8
0
 10
-86.0607
 20
-103.948
 11
-87.5615
 21
-103.492
  0
LINE
  8
0
 10
-87.5615
 20
-103.492
 11
-88.9446
 21
-102.753
  0
LINE
  8
0
 10
-88.9446
 20
-102.753
 11
-90.1568
 21
-101.758
  0
LINE
  8
0
 10
-90.1568
 20
-101.758
 11
-91.1517
 21
-100.546
  0
LINE
  8
0
 10
-91.1517
 20
-100.546
 11
-91.891
 21
-99.1627
  0
LINE
  8
0
 10
-91.891
 20
-99.1627
 11
-92.3463
 21
-97.662
  0
LINE
  8
0
 10
-92.3463
 20
-97.662
 11
-92.5
 21
-96.1013
  0
LINE
  8
0
 10
-92.5
 20
-96.1013
 11
-92.5
 21
-77.1013
  0
LINE
  8
0
 10
-92.5
 20
-77.1013
 11
-92.3463
 21
-75.5405
  0
LINE
  8
0
 10
-92.3463
 20
-75.5405
 11
-91.891
 21
-74.0398
  0
LINE
  8
0
 10
-91.891
 20
-74.0398
 11
-91.1517
 21
-72.6567
  0
LINE
  8
0
 10
-91.1517
 20
-72.6567
 11
-90.1568
 21
-71.4444
  0
LINE
  8
0
 10
-90.1568
 20
-71.4444
 11
-88.9446
 21
-70.4495
  0
LINE
  8
0
 10
-88.9446
 20
-70.4495
 11
-87.5615
 21
-69.7102
  0
LINE
  8
0
 10
-87.5615
 20
-69.7102
 11
-86.0607
 21
-69.255
  0
LINE
  8
0
 10
-86.0607
 20
-69.255
 11
-84.5
 21
-69.1013
  0
LINE
  8
0
 10
-84.5
 20
-69.1013
 11
84.5
 21
-69.1013
  0
LINE
  8
0
 10
84.5
 20
-69.1013
 11
86.0607
 21
-69.255
  0
LINE
  8
0
 10
86.0607
 20
-69.255
 11
87.5615
 21
-69.7102
  0
LINE
  8
0
 10
87.5615
 20
-69.7102
 11
88.9446
 21
-70.4495
  0
LINE
  8
0
 10
88.9446
 20
-70.4495
 11
90.1568
 21
-71.4444
  0
LINE
  8
0
 10
90.1568
 20
-71.4444
 11
91.1517
 21
-72.6567
  0
LINE
  8
0
 10
91.1517
 20
-72.6567
 11
91.891
 21
-74.0398
  0
LINE
  8
0
 10
91.891
 20
-74.0398
 11
92.3463
 21
-75.5405
  0
LINE
  8
0
 10
92.3463
 20
-75.5405
 11
92.5
 21
-77.1013
  0
LINE
  8
0
 10
92.5
 20
-77.1013
 11
92.5
 21
-96.1013
  0
LINE
  8
0
 10
92.5
 20
-96.1013
 11
92.3463
 21
-97.662
  0
LINE
  8
0
 10
92.3463
 20
-97.662
 11
91.891
 21
-99.1627
  0
LINE
  8
0
 10
91.891
 20
-99.1627
 11
91.1517
 21
-100.546
  0
LINE
  8
0
 10
91.1517
 20
-100.546
 11
90.1568
 21
-101.758
  0
LINE
  8
0
 10
90.1568
 20
-101.758
 11
88.9446
 21
-102.753
  0
LINE
  8
0
 10
88.9446
 20
-102.753
 11
87.5615
 21
-103.492
  0
LINE
  8
0
 10
87.5615
 20
-103.492
 11
86.0607
 21
-103.948
  0
LINE
  8
0
 10
86.0607
 20
-103.948
 11
84.5
 21
-104.101
  0
LINE
  8
0
 10
84.5
 20
-104.101
 11
-84.5
 21
-104.101
  0
LINE
  8
0
 10
-104.414
 20
-115.545
 11
-104.8
 21
-115.386
  0
LINE
  8
0
 10
-104.8
 20
-115.386
 11
-105.131
 21
-115.131
  0
LINE
  8
0
 10
-105.131
 20
-115.131
 11
-105.386
 21
-114.8
  0
LINE
  8
0
 10
-105.386
 20
-114.8
 11
-105.545
 21
-114.414
  0
LINE
  8
0
 10
-105.545
 20
-114.414
 11
-105.6
 21
-114
  0
LINE
  8
0
 10
-105.6
 20
-114
 11
-105.545
 21
-113.586
  0
LINE
  8
0
 10
-105.545
 20
-113.586
 11
-105.386
 21
-113.2
  0
LINE
  8
0
 10
-105.386
 20
-113.2
 11
-105.131
 21
-112.869
  0
LINE
  8
0
 10
-105.131
 20
-112.869
 11
-104.8
 21
-112.614
  0
LINE
  8
0
 10
-104.8
 20
-112.614
 11
-104.414
 21
-112.455
  0
LINE
  8
0
 10
-104.414
 20
-112.455
 11
-104
 21
-112.4
  0
LINE
  8
0
 10
-104
 20
-112.4
 11
-103.586
 21
-112.455
  0
LINE
  8
0
 10
-103.586
 20
-112.455
 11
-103.2
 21
-112.614
  0
LINE
  8
0
 10
-103.2
 20
-112.614
 11
-102.869
 21
-112.869
  0
LINE
  8
0
 10
-102.869
 20
-112.869
 11
-102.614
 21
-113.2
  0
LINE
  8
0
 10
-102.614
 20
-113.2
 11
-102.455
 21
-113.586
  0
LINE
  8
0
 10
-102.455
 20
-113.586
 11
-102.4
 21
-114
  0
LINE
  8
0
 10
-102.4
 20
-114
 11
-102.455
 21
-114.414
  0
LINE
  8
0
 10
-102.455
 20
-114.414
 11
-102.614
 21
-114.8
  0
LINE
  8
0
 10
-102.614
 20
-114.8
 11
-102.869
 21
-115.131
  0
LINE
  8
0
 10
-102.869
 20
-115.131
 11
-103.2
 21
-115.386
  0
LINE
  8
0
 10
-103.2
 20
-115.386
 11
-103.586
 21
-115.545
  0
LINE
  8
0
 10
-103.586
 20
-115.545
 11
-104
 21
-115.6
  0
LINE
  8
0
 10
-104
 20
-115.6
 11
-104.414
 21
-115.545
  0
LINE
  8
0
 10
103.586
 20
-115.545
 11
103.2
 21
-115.386
  0
LINE
  8
0
 10
103.2
 20
-115.386
 11
102.869
 21
-115.131
  0
LINE
  8
0
 10
102.869
 20
-115.131
 11
102.614
 21
-114.8
  0
LINE
  8
0
 10
102.614
 20
-114.8
 11
102.455
 21
-114.414
  0
LINE
  8
0
 10
102.455
 20
-114.414
 11
102.4
 21
-114
  0
LINE
  8
0
 10
102.4
 20
-114
 11
102.455
 21
-113.586
  0
LINE
  8
0
 10
102.455
 20
-113.586
 11
102.614
 21
-113.2
  0
LINE
  8
0
 10
102.614
 20
-113.2
 11
102.869
 21
-112.869
  0
LINE
  8
0
 10
102.869
 20
-112.869
 11
103.2
 21
-112.614
  0
LINE
  8
0
 10
103.2
 20
-112.614
 11
103.586
 21
-112.455
  0
LINE
  8
0
 10
103.586
 20
-112.455
 11
104
 21
-112.4
  0
LINE
  8
0
 10
104
 20
-112.4
 11
104.414
 21
-112.455
  0
LINE
  8
0
 10
104.414
 20
-112.455
 11
104.8
 21
-112.614
  0
LINE
  8
0
 10
104.8
 20
-112.614
 11
105.131
 21
-112.869
  0
LINE
  8
0
 10
105.131
 20
-112.869
 11
105.386
 21
-113.2
  0
LINE
  8
0
 10
105.386
 20
-113.2
 11
105.545
 21
-113.586
  0
LINE
  8
0
 10
105.545
 20
-113.586
 11
105.6
 21
-114
  0
LINE
  8
0
 10
105.6
 20
-114
 11
105.545
 21
-114.414
  0
LINE
  8
0
 10
105.545
 20
-114.414
 11
105.386
 21
-114.8
  0
LINE
  8
0
 10
105.386
 20
-114.8
 11
105.131
 21
-115.131
  0
LINE
  8
0
 10
105.131
 20
-115.131
 11
104.8
 21
-115.386
  0
LINE
  8
0
 10
104.8
 20
-115.386
 11
104.414
 21
-115.545
  0
LINE
  8
0
 10
104.414
 20
-115.545
 11
104
 21
-115.6
  0
LINE
  8
0
 10
104
 20
-115.6
 11
103.586
 21
-115.545
  0
LINE
  8
0
 10
-0.414108
 20
-115.545
 11
-0.799988
 21
-115.386
  0
LINE
  8
0
 10
-0.799988
 20
-115.386
 11
-1.13136
 21
-115.131
  0
LINE
  8
0
 10
-1.13136
 20
-115.131
 11
-1.38564
 21
-114.8
  0
LINE
  8
0
 10
-1.38564
 20
-114.8
 11
-1.54547
 21
-114.414
  0
LINE
  8
0
 10
-1.54547
 20
-114.414
 11
-1.59999
 21
-114
  0
LINE
  8
0
 10
-1.59999
 20
-114
 11
-1.54547
 21
-113.586
  0
LINE
  8
0
 10
-1.54547
 20
-113.586
 11
-1.38564
 21
-113.2
  0
LINE
  8
0
 10
-1.38564
 20
-113.2
 11
-1.13136
 21
-112.869
  0
LINE
  8
0
 10
-1.13136
 20
-112.869
 11
-0.799988
 21
-112.614
  0
LINE
  8
0
 10
-0.799988
 20
-112.614
 11
-0.414108
 21
-112.455
  0
LINE
  8
0
 10
-0.414108
 20
-112.455
 11
0
 21
-112.4
  0
LINE
  8
0
 10
0
 20
-112.4
 11
0.414108
 21
-112.455
  0
LINE
  8
0
 10
0.414108
 20
-112.455
 11
0.799988
 21
-112.614
  0
LINE
  8
0
 10
0.799988
 20
-112.614
 11
1.13136
 21
-112.869
  0
LINE
  8
0
 10
1.13136
 20
-112.869
 11
1.38564
 21
-113.2
  0
LINE
  8
0
 10
1.38564
 20
-113.2
 11
1.54547
 21
-113.586
  0
LINE
  8
0
 10
1.54547
 20
-113.586
 11
1.59999
 21
-114
  0
LINE
  8
0
 10
1.59999
 20
-114
 11
1.54547
 21
-114.414
  0
LINE
  8
0
 10
1.54547
 20
-114.414
 11
1.38564
 21
-114.8
  0
LINE
  8
0
 10
1.38564
 20
-114.8
 11
1.13136
 21
-115.131
  0
LINE
  8
0
 10
1.13136
 20
-115.131
 11
0.799988
 21
-115.386
  0
LINE
  8
0
 10
0.799988
 20
-115.386
 11
0.414108
 21
-115.545
  0
LINE
  8
0
 10
0.414108
 20
-115.545
 11
0
 21
-115.6
  0
LINE
  8
0
 10
0
 20
-115.6
 11
-0.414108
 21
-115.545
  0
LINE
  8
0
 10
-46.2235
 20
-40.9484
 11
-47
 21
-41.0506
  0
LINE
  8
0
 10
-47
 20
-41.0506
 11
-47.7765
 21
-40.9484
  0
LINE
  8
0
 10
-47.7765
 20
-40.9484
 11
-48.5
 21
-40.6487
  0
LINE
  8
0
 10
-48.5
 20
-40.6487
 11
-49.1213
 21
-40.1719
  0
LINE
  8
0
 10
-49.1213
 20
-40.1719
 11
-49.5981
 21
-39.5506
  0
LINE
  8
0
 10
-49.5981
 20
-39.5506
 11
-49.8978
 21
-38.8271
  0
LINE
  8
0
 10
-49.8978
 20
-38.8271
 11
-50
 21
-38.0506
  0
LINE
  8
0
 10
-50
 20
-38.0506
 11
-49.8978
 21
-37.2742
  0
LINE
  8
0
 10
-49.8978
 20
-37.2742
 11
-49.5981
 21
-36.5506
  0
LINE
  8
0
 10
-49.5981
 20
-36.5506
 11
-49.1213
 21
-35.9293
  0
LINE
  8
0
 10
-49.1213
 20
-35.9293
 11
-48.5
 21
-35.4525
  0
LINE
  8
0
 10
-48.5
 20
-35.4525
 11
-47.7765
 21
-35.1528
  0
LINE
  8
0
 10
-47.7765
 20
-35.1528
 11
-47
 21
-35.0506
  0
LINE
  8
0
 10
-47
 20
-35.0506
 11
-46.2235
 21
-35.1528
  0
LINE
  8
0
 10
-46.2235
 20
-35.1528
 11
-45.5
 21
-35.4525
  0
LINE
  8
0
 10
-45.5
 20
-35.4525
 11
-44.8787
 21
-35.9293
  0
LINE
  8
0
 10
-44.8787
 20
-35.9293
 11
-44.4019
 21
-36.5506
  0
LINE
  8
0
 10
-44.4019
 20
-36.5506
 11
-44.1022
 21
-37.2742
  0
LINE
  8
0
 10
-44.1022
 20
-37.2742
 11
-44
 21
-38.0506
  0
LINE
  8
0
 10
-44
 20
-38.0506
 11
-44.1022
 21
-38.8271
  0
LINE
  8
0
 10
-44.1022
 20
-38.8271
 11
-44.4019
 21
-39.5506
  0
LINE
  8
0
 10
-44.4019
 20
-39.5506
 11
-44.8787
 21
-40.1719
  0
LINE
  8
0
 10
-44.8787
 20
-40.1719
 11
-45.5
 21
-40.6487
  0
LINE
  8
0
 10
-45.5
 20
-40.6487
 11
-46.2235
 21
-40.9484
  0
LINE
  8
0
 10
-44.1022
 20
-49.7765
 11
-44.4019
 21
-50.5
  0
LINE
  8
0
 10
-44.4019
 20
-50.5
 11
-44.8787
 21
-51.1213
  0
LINE
  8
0
 10
-44.8787
 20
-51.1213
 11
-45.5
 21
-51.5981
  0
LINE
  8
0
 10
-45.5
 20
-51.5981
 11
-46.2235
 21
-51.8978
  0
LINE
  8
0
 10
-46.2235
 20
-51.8978
 11
-47
 21
-52
  0
LINE
  8
0
 10
-47
 20
-52
 11
-47.7765
 21
-51.8978
  0
LINE
  8
0
 10
-47.7765
 20
-51.8978
 11
-48.5
 21
-51.5981
  0
LINE
  8
0
 10
-48.5
 20
-51.5981
 11
-49.1213
 21
-51.1213
  0
LINE
  8
0
 10
-49.1213
 20
-51.1213
 11
-49.5981
 21
-50.5
  0
LINE
  8
0
 10
-49.5981
 20
-50.5
 11
-49.8978
 21
-49.7765
  0
LINE
  8
0
 10
-49.8978
 20
-49.7765
 11
-50
 21
-49
  0
LINE
  8
0
 10
-50
 20
-49
 11
-49.8978
 21
-48.2235
  0
LINE
  8
0
 10
-49.8978
 20
-48.2235
 11
-49.5981
 21
-47.5
  0
LINE
  8
0
 10
-49.5981
 20
-47.5
 11
-49.1213
 21
-46.8787
  0
LINE
  8
0
 10
-49.1213
 20
-46.8787
 11
-48.5
 21
-46.4019
  0
LINE
  8
0
 10
-48.5
 20
-46.4019
 11
-47.7765
 21
-46.1022
  0
LINE
  8
0
 10
-47.7765
 20
-46.1022
 11
-47
 21
-46
  0
LINE
  8
0
 10
-47
 20
-46
 11
-46.2235
 21
-46.1022
  0
LINE
  8
0
 10
-46.2235
 20
-46.1022
 11
-45.5
 21
-46.4019
  0
LINE
  8
0
 10
-45.5
 20
-46.4019
 11
-44.8787
 21
-46.8787
  0
LINE
  8
0
 10
-44.8787
 20
-46.8787
 11
-44.4019
 21
-47.5
  0
LINE
  8
0
 10
-44.4019
 20
-47.5
 11
-44.1022
 21
-48.2235
  0
LINE
  8
0
 10
-44.1022
 20
-48.2235
 11
-44
 21
-49
  0
LINE
  8
0
 10
-44
 20
-49
 11
-44.1022
 21
-49.7765
  0
LINE
  8
0
 10
-7
 20
-52
 11
-7.77644
 21
-51.8978
  0
LINE
  8
0
 10
-7.77644
 20
-51.8978
 11
-8.5
 21
-51.5981
  0
LINE
  8
0
 10
-8.5
 20
-51.5981
 11
-9.12131
 21
-51.1213
  0
LINE
  8
0
 10
-9.12131
 20
-51.1213
 11
-9.59807
 21
-50.5
  0
LINE
  8
0
 10
-9.59807
 20
-50.5
 11
-9.89777
 21
-49.7765
  0
LINE
  8
0
 10
-9.89777
 20
-49.7765
 11
-10
 21
-49
  0
LINE
  8
0
 10
-10
 20
-49
 11
-9.89777
 21
-48.2235
  0
LINE
  8
0
 10
-9.89777
 20
-48.2235
 11
-9.59807
 21
-47.5
  0
LINE
  8
0
 10
-9.59807
 20
-47.5
 11
-9.12131
 21
-46.8787
  0
LINE
  8
0
 10
-9.12131
 20
-46.8787
 11
-8.5
 21
-46.4019
  0
LINE
  8
0
 10
-8.5
 20
-46.4019
 11
-7.77644
 21
-46.1022
  0
LINE
  8
0
 10
-7.77644
 20
-46.1022
 11
-7
 21
-46
  0
LINE
  8
0
 10
-7
 20
-46
 11
-6.22354
 21
-46.1022
  0
LINE
  8
0
 10
-6.22354
 20
-46.1022
 11
-5.5
 21
-46.4019
  0
LINE
  8
0
 10
-5.5
 20
-46.4019
 11
-4.87868
 21
-46.8787
  0
LINE
  8
0
 10
-4.87868
 20
-46.8787
 11
-4.40192
 21
-47.5
  0
LINE
  8
0
 10
-4.40192
 20
-47.5
 11
-4.10222
 21
-48.2235
  0
LINE
  8
0
 10
-4.10222
 20
-48.2235
 11
-4
 21
-49
  0
LINE
  8
0
 10
-4
 20
-49
 11
-4.10222
 21
-49.7765
  0
LINE
  8
0
 10
-4.10222
 20
-49.7765
 11
-4.40192
 21
-50.5
  0
LINE
  8
0
 10
-4.40192
 20
-50.5
 11
-4.87868
 21
-51.1213
  0
LINE
  8
0
 10
-4.87868
 20
-51.1213
 11
-5.5
 21
-51.5981
  0
LINE
  8
0
 10
-5.5
 20
-51.5981
 11
-6.22354
 21
-51.8978
  0
LINE
  8
0
 10
-6.22354
 20
-51.8978
 11
-7
 21
-52
  0
ENDSEC
  0
SECTION
  2
OBJECTS
  0
DICTIONARY
  0
ENDSEC
  0
EOF
