  0
SECTION
  2
BLOCKS
  0
ENDSEC
  0
SECTION
  2
ENTITIES
  0
LINE
  8
0
 10
103.561
 20
-119.846
 11
105.061
 21
-119.391
  0
LINE
  8
0
 10
105.061
 20
-119.391
 11
106.445
 21
-118.652
  0
LINE
  8
0
 10
106.445
 20
-118.652
 11
107.657
 21
-117.657
  0
LINE
  8
0
 10
107.657
 20
-117.657
 11
108.652
 21
-116.445
  0
LINE
  8
0
 10
108.652
 20
-116.445
 11
109.391
 21
-115.061
  0
LINE
  8
0
 10
109.391
 20
-115.061
 11
109.846
 21
-113.561
  0
LINE
  8
0
 10
109.846
 20
-113.561
 11
110
 21
-112
  0
LINE
  8
0
 10
110
 20
-112
 11
110
 21
32
  0
LINE
  8
0
 10
110
 20
32
 11
109.846
 21
33.5607
  0
LINE
  8
0
 10
109.846
 20
33.5607
 11
109.391
 21
35.0615
  0
LINE
  8
0
 10
109.391
 20
35.0615
 11
108.652
 21
36.4445
  0
LINE
  8
0
 10
108.652
 20
36.4445
 11
107.657
 21
37.6568
  0
LINE
  8
0
 10
107.657
 20
37.6568
 11
106.445
 21
38.6517
  0
LINE
  8
0
 10
106.445
 20
38.6517
 11
105.061
 21
39.391
  0
LINE
  8
0
 10
105.061
 20
39.391
 11
103.561
 21
39.8463
  0
LINE
  8
0
 10
103.561
 20
39.8463
 11
102
 21
40
  0
LINE
  8
0
 10
102
 20
40
 11
-102
 21
40
  0
LINE
  8
0
 10
-102
 20
40
 11
-103.561
 21
39.8463
  0
LINE
  8
0
 10
-103.561
 20
39.8463
 11
-105.061
 21
39.391
  0
LINE
  8
0
 10
-105.061
 20
39.391
 11
-106.445
 21
38.6517
  0
LINE
  8
0
 10
-106.445
 20
38.6517
 11
-107.657
 21
37.6568
  0
LINE
  8
0
 10
-107.657
 20
37.6568
 11
-108.652
 21
36.4445
  0
LINE
  8
0
 10
-108.652
 20
36.4445
 11
-109.391
 21
35.0615
  0
LINE
  8
0
 10
-109.391
 20
35.0615
 11
-109.846
 21
33.5607
  0
LINE
  8
0
 10
-109.846
 20
33.5607
 11
-110
 21
32
  0
LINE
  8
0
 10
-110
 20
32
 11
-110
 21
-112
  0
LINE
  8
0
 10
-110
 20
-112
 11
-109.846
 21
-113.561
  0
LINE
  8
0
 10
-109.846
 20
-113.561
 11
-109.391
 21
-115.061
  0
LINE
  8
0
 10
-109.391
 20
-115.061
 11
-108.652
 21
-116.445
  0
LINE
  8
0
 10
-108.652
 20
-116.445
 11
-107.657
 21
-117.657
  0
LINE
  8
0
 10
-107.657
 20
-117.657
 11
-106.445
 21
-118.652
  0
LINE
  8
0
 10
-106.445
 20
-118.652
 11
-105.061
 21
-119.391
  0
LINE
  8
0
 10
-105.061
 20
-119.391
 11
-103.561
 21
-119.846
  0
LINE
  8
0
 10
-103.561
 20
-119.846
 11
-102
 21
-120
  0
LINE
  8
0
 10
-102
 20
-120
 11
102
 21
-120
  0
LINE
  8
0
 10
102
 20
-120
 11
103.561
 21
-119.846
  0
LINE
  8
0
 10
103.586
 20
32.4545
 11
103.2
 21
32.6143
  0
LINE
  8
0
 10
103.2
 20
32.6143
 11
102.869
 21
32.8686
  0
LINE
  8
0
 10
102.869
 20
32.8686
 11
102.614
 21
33.2
  0
LINE
  8
0
 10
102.614
 20
33.2
 11
102.455
 21
33.5859
  0
LINE
  8
0
 10
102.455
 20
33.5859
 11
102.4
 21
34
  0
LINE
  8
0
 10
102.4
 20
34
 11
102.455
 21
34.4141
  0
LINE
  8
0
 10
102.455
 20
34.4141
 11
102.614
 21
34.8
  0
LINE
  8
0
 10
102.614
 20
34.8
 11
102.869
 21
35.1314
  0
LINE
  8
0
 10
102.869
 20
35.1314
 11
103.2
 21
35.3856
  0
LINE
  8
0
 10
103.2
 20
35.3856
 11
103.586
 21
35.5455
  0
LINE
  8
0
 10
103.586
 20
35.5455
 11
104
 21
35.6
  0
LINE
  8
0
 10
104
 20
35.6
 11
104.414
 21
35.5455
  0
LINE
  8
0
 10
104.414
 20
35.5455
 11
104.8
 21
35.3856
  0
LINE
  8
0
 10
104.8
 20
35.3856
 11
105.131
 21
35.1314
  0
LINE
  8
0
 10
105.131
 20
35.1314
 11
105.386
 21
34.8
  0
LINE
  8
0
 10
105.386
 20
34.8
 11
105.545
 21
34.4141
  0
LINE
  8
0
 10
105.545
 20
34.4141
 11
105.6
 21
34
  0
LINE
  8
0
 10
105.6
 20
34
 11
105.545
 21
33.5859
  0
LINE
  8
0
 10
105.545
 20
33.5859
 11
105.386
 21
33.2
  0
LINE
  8
0
 10
105.386
 20
33.2
 11
105.131
 21
32.8686
  0
LINE
  8
0
 10
105.131
 20
32.8686
 11
104.8
 21
32.6143
  0
LINE
  8
0
 10
104.8
 20
32.6143
 11
104.414
 21
32.4545
  0
LINE
  8
0
 10
104.414
 20
32.4545
 11
104
 21
32.4
  0
LINE
  8
0
 10
104
 20
32.4
 11
103.586
 21
32.4545
  0
LINE
  8
0
 10
-0.414108
 20
32.4545
 11
-0.799988
 21
32.6143
  0
LINE
  8
0
 10
-0.799988
 20
32.6143
 11
-1.13136
 21
32.8686
  0
LINE
  8
0
 10
-1.13136
 20
32.8686
 11
-1.38564
 21
33.2
  0
LINE
  8
0
 10
-1.38564
 20
33.2
 11
-1.54547
 21
33.5859
  0
LINE
  8
0
 10
-1.54547
 20
33.5859
 11
-1.59999
 21
34
  0
LINE
  8
0
 10
-1.59999
 20
34
 11
-1.54547
 21
34.4141
  0
LINE
  8
0
 10
-1.54547
 20
34.4141
 11
-1.38564
 21
34.8
  0
LINE
  8
0
 10
-1.38564
 20
34.8
 11
-1.13136
 21
35.1314
  0
LINE
  8
0
 10
-1.13136
 20
35.1314
 11
-0.799988
 21
35.3856
  0
LINE
  8
0
 10
-0.799988
 20
35.3856
 11
-0.414108
 21
35.5455
  0
LINE
  8
0
 10
-0.414108
 20
35.5455
 11
0
 21
35.6
  0
LINE
  8
0
 10
0
 20
35.6
 11
0.414108
 21
35.5455
  0
LINE
  8
0
 10
0.414108
 20
35.5455
 11
0.799988
 21
35.3856
  0
LINE
  8
0
 10
0.799988
 20
35.3856
 11
1.13136
 21
35.1314
  0
LINE
  8
0
 10
1.13136
 20
35.1314
 11
1.38564
 21
34.8
  0
LINE
  8
0
 10
1.38564
 20
34.8
 11
1.54547
 21
34.4141
  0
LINE
  8
0
 10
1.54547
 20
34.4141
 11
1.59999
 21
34
  0
LINE
  8
0
 10
1.59999
 20
34
 11
1.54547
 21
33.5859
  0
LINE
  8
0
 10
1.54547
 20
33.5859
 11
1.38564
 21
33.2
  0
LINE
  8
0
 10
1.38564
 20
33.2
 11
1.13136
 21
32.8686
  0
LINE
  8
0
 10
1.13136
 20
32.8686
 11
0.799988
 21
32.6143
  0
LINE
  8
0
 10
0.799988
 20
32.6143
 11
0.414108
 21
32.4545
  0
LINE
  8
0
 10
0.414108
 20
32.4545
 11
0
 21
32.4
  0
LINE
  8
0
 10
0
 20
32.4
 11
-0.414108
 21
32.4545
  0
LINE
  8
0
 10
-104.414
 20
32.4545
 11
-104.8
 21
32.6143
  0
LINE
  8
0
 10
-104.8
 20
32.6143
 11
-105.131
 21
32.8686
  0
LINE
  8
0
 10
-105.131
 20
32.8686
 11
-105.386
 21
33.2
  0
LINE
  8
0
 10
-105.386
 20
33.2
 11
-105.545
 21
33.5859
  0
LINE
  8
0
 10
-105.545
 20
33.5859
 11
-105.6
 21
34
  0
LINE
  8
0
 10
-105.6
 20
34
 11
-105.545
 21
34.4141
  0
LINE
  8
0
 10
-105.545
 20
34.4141
 11
-105.386
 21
34.8
  0
LINE
  8
0
 10
-105.386
 20
34.8
 11
-105.131
 21
35.1314
  0
LINE
  8
0
 10
-105.131
 20
35.1314
 11
-104.8
 21
35.3856
  0
LINE
  8
0
 10
-104.8
 20
35.3856
 11
-104.414
 21
35.5455
  0
LINE
  8
0
 10
-104.414
 20
35.5455
 11
-104
 21
35.6
  0
LINE
  8
0
 10
-104
 20
35.6
 11
-103.586
 21
35.5455
  0
LINE
  8
0
 10
-103.586
 20
35.5455
 11
-103.2
 21
35.3856
  0
LINE
  8
0
 10
-103.2
 20
35.3856
 11
-102.869
 21
35.1314
  0
LINE
  8
0
 10
-102.869
 20
35.1314
 11
-102.614
 21
34.8
  0
LINE
  8
0
 10
-102.614
 20
34.8
 11
-102.455
 21
34.4141
  0
LINE
  8
0
 10
-102.455
 20
34.4141
 11
-102.4
 21
34
  0
LINE
  8
0
 10
-102.4
 20
34
 11
-102.455
 21
33.5859
  0
LINE
  8
0
 10
-102.455
 20
33.5859
 11
-102.614
 21
33.2
  0
LINE
  8
0
 10
-102.614
 20
33.2
 11
-102.869
 21
32.8686
  0
LINE
  8
0
 10
-102.869
 20
32.8686
 11
-103.2
 21
32.6143
  0
LINE
  8
0
 10
-103.2
 20
32.6143
 11
-103.586
 21
32.4545
  0
LINE
  8
0
 10
-103.586
 20
32.4545
 11
-104
 21
32.4
  0
LINE
  8
0
 10
-104
 20
32.4
 11
-104.414
 21
32.4545
  0
LINE
  8
0
 10
-80.4141
 20
3.45451
 11
-80.8
 21
3.61435
  0
LINE
  8
0
 10
-80.8
 20
3.61435
 11
-81.1314
 21
3.86862
  0
LINE
  8
0
 10
-81.1314
 20
3.86862
 11
-81.3856
 21
4.2
  0
LINE
  8
0
 10
-81.3856
 20
4.2
 11
-81.5455
 21
4.58588
  0
LINE
  8
0
 10
-81.5455
 20
4.58588
 11
-81.6
 21
5
  0
LINE
  8
0
 10
-81.6
 20
5
 11
-81.5455
 21
5.41411
  0
LINE
  8
0
 10
-81.5455
 20
5.41411
 11
-81.3856
 21
5.79999
  0
LINE
  8
0
 10
-81.3856
 20
5.79999
 11
-81.1314
 21
6.13136
  0
LINE
  8
0
 10
-81.1314
 20
6.13136
 11
-80.8
 21
6.38564
  0
LINE
  8
0
 10
-80.8
 20
6.38564
 11
-80.4141
 21
6.54547
  0
LINE
  8
0
 10
-80.4141
 20
6.54547
 11
-80
 21
6.59999
  0
LINE
  8
0
 10
-80
 20
6.59999
 11
-79.5859
 21
6.54547
  0
LINE
  8
0
 10
-79.5859
 20
6.54547
 11
-79.2
 21
6.38564
  0
LINE
  8
0
 10
-79.2
 20
6.38564
 11
-78.8686
 21
6.13136
  0
LINE
  8
0
 10
-78.8686
 20
6.13136
 11
-78.6143
 21
5.79999
  0
LINE
  8
0
 10
-78.6143
 20
5.79999
 11
-78.4545
 21
5.41411
  0
LINE
  8
0
 10
-78.4545
 20
5.41411
 11
-78.4
 21
5
  0
LINE
  8
0
 10
-78.4
 20
5
 11
-78.4545
 21
4.58588
  0
LINE
  8
0
 10
-78.4545
 20
4.58588
 11
-78.6143
 21
4.2
  0
LINE
  8
0
 10
-78.6143
 20
4.2
 11
-78.8686
 21
3.86862
  0
LINE
  8
0
 10
-78.8686
 20
3.86862
 11
-79.2
 21
3.61435
  0
LINE
  8
0
 10
-79.2
 20
3.61435
 11
-79.5859
 21
3.45451
  0
LINE
  8
0
 10
-79.5859
 20
3.45451
 11
-80
 21
3.39999
  0
LINE
  8
0
 10
-80
 20
3.39999
 11
-80.4141
 21
3.45451
  0
LINE
  8
0
 10
-88
 20
-22
 11
-88
 21
3
  0
LINE
  8
0
 10
-88
 20
3
 11
-72
 21
3
  0
LINE
  8
0
 10
-72
 20
3
 11
-72
 21
-22
  0
LINE
  8
0
 10
-72
 20
-22
 11
-88
 21
-22
  0
LINE
  8
0
 10
-80.4141
 20
-25.5455
 11
-80.8
 21
-25.3856
  0
LINE
  8
0
 10
-80.8
 20
-25.3856
 11
-81.1314
 21
-25.1314
  0
LINE
  8
0
 10
-81.1314
 20
-25.1314
 11
-81.3856
 21
-24.8
  0
LINE
  8
0
 10
-81.3856
 20
-24.8
 11
-81.5455
 21
-24.4141
  0
LINE
  8
0
 10
-81.5455
 20
-24.4141
 11
-81.6
 21
-24
  0
LINE
  8
0
 10
-81.6
 20
-24
 11
-81.5455
 21
-23.5859
  0
LINE
  8
0
 10
-81.5455
 20
-23.5859
 11
-81.3856
 21
-23.2
  0
LINE
  8
0
 10
-81.3856
 20
-23.2
 11
-81.1314
 21
-22.8686
  0
LINE
  8
0
 10
-81.1314
 20
-22.8686
 11
-80.8
 21
-22.6143
  0
LINE
  8
0
 10
-80.8
 20
-22.6143
 11
-80.4141
 21
-22.4545
  0
LINE
  8
0
 10
-80.4141
 20
-22.4545
 11
-80
 21
-22.4
  0
LINE
  8
0
 10
-80
 20
-22.4
 11
-79.5859
 21
-22.4545
  0
LINE
  8
0
 10
-79.5859
 20
-22.4545
 11
-79.2
 21
-22.6143
  0
LINE
  8
0
 10
-79.2
 20
-22.6143
 11
-78.8686
 21
-22.8686
  0
LINE
  8
0
 10
-78.8686
 20
-22.8686
 11
-78.6143
 21
-23.2
  0
LINE
  8
0
 10
-78.6143
 20
-23.2
 11
-78.4545
 21
-23.5859
  0
LINE
  8
0
 10
-78.4545
 20
-23.5859
 11
-78.4
 21
-24
  0
LINE
  8
0
 10
-78.4
 20
-24
 11
-78.4545
 21
-24.4141
  0
LINE
  8
0
 10
-78.4545
 20
-24.4141
 11
-78.6143
 21
-24.8
  0
LINE
  8
0
 10
-78.6143
 20
-24.8
 11
-78.8686
 21
-25.1314
  0
LINE
  8
0
 10
-78.8686
 20
-25.1314
 11
-79.2
 21
-25.3856
  0
LINE
  8
0
 10
-79.2
 20
-25.3856
 11
-79.5859
 21
-25.5455
  0
LINE
  8
0
 10
-79.5859
 20
-25.5455
 11
-80
 21
-25.6
  0
LINE
  8
0
 10
-80
 20
-25.6
 11
-80.4141
 21
-25.5455
  0
LINE
  8
0
 10
103.586
 20
-41.5455
 11
103.2
 21
-41.3856
  0
LINE
  8
0
 10
103.2
 20
-41.3856
 11
102.869
 21
-41.1314
  0
LINE
  8
0
 10
102.869
 20
-41.1314
 11
102.614
 21
-40.8
  0
LINE
  8
0
 10
102.614
 20
-40.8
 11
102.455
 21
-40.4141
  0
LINE
  8
0
 10
102.455
 20
-40.4141
 11
102.4
 21
-40
  0
LINE
  8
0
 10
102.4
 20
-40
 11
102.455
 21
-39.5859
  0
LINE
  8
0
 10
102.455
 20
-39.5859
 11
102.614
 21
-39.2
  0
LINE
  8
0
 10
102.614
 20
-39.2
 11
102.869
 21
-38.8686
  0
LINE
  8
0
 10
102.869
 20
-38.8686
 11
103.2
 21
-38.6143
  0
LINE
  8
0
 10
103.2
 20
-38.6143
 11
103.586
 21
-38.4545
  0
LINE
  8
0
 10
103.586
 20
-38.4545
 11
104
 21
-38.4
  0
LINE
  8
0
 10
104
 20
-38.4
 11
104.414
 21
-38.4545
  0
LINE
  8
0
 10
104.414
 20
-38.4545
 11
104.8
 21
-38.6143
  0
LINE
  8
0
 10
104.8
 20
-38.6143
 11
105.131
 21
-38.8686
  0
LINE
  8
0
 10
105.131
 20
-38.8686
 11
105.386
 21
-39.2
  0
LINE
  8
0
 10
105.386
 20
-39.2
 11
105.545
 21
-39.5859
  0
LINE
  8
0
 10
105.545
 20
-39.5859
 11
105.6
 21
-40
  0
LINE
  8
0
 10
105.6
 20
-40
 11
105.545
 21
-40.4141
  0
LINE
  8
0
 10
105.545
 20
-40.4141
 11
105.386
 21
-40.8
  0
LINE
  8
0
 10
105.386
 20
-40.8
 11
105.131
 21
-41.1314
  0
LINE
  8
0
 10
105.131
 20
-41.1314
 11
104.8
 21
-41.3856
  0
LINE
  8
0
 10
104.8
 20
-41.3856
 11
104.414
 21
-41.5455
  0
LINE
  8
0
 10
104.414
 20
-41.5455
 11
104
 21
-41.6
  0
LINE
  8
0
 10
104
 20
-41.6
 11
103.586
 21
-41.5455
  0
LINE
  8
0
 10
-104.414
 20
-41.5455
 11
-104.8
 21
-41.3856
  0
LINE
  8
0
 10
-104.8
 20
-41.3856
 11
-105.131
 21
-41.1314
  0
LINE
  8
0
 10
-105.131
 20
-41.1314
 11
-105.386
 21
-40.8
  0
LINE
  8
0
 10
-105.386
 20
-40.8
 11
-105.545
 21
-40.4141
  0
LINE
  8
0
 10
-105.545
 20
-40.4141
 11
-105.6
 21
-40
  0
LINE
  8
0
 10
-105.6
 20
-40
 11
-105.545
 21
-39.5859
  0
LINE
  8
0
 10
-105.545
 20
-39.5859
 11
-105.386
 21
-39.2
  0
LINE
  8
0
 10
-105.386
 20
-39.2
 11
-105.131
 21
-38.8686
  0
LINE
  8
0
 10
-105.131
 20
-38.8686
 11
-104.8
 21
-38.6143
  0
LINE
  8
0
 10
-104.8
 20
-38.6143
 11
-104.414
 21
-38.4545
  0
LINE
  8
0
 10
-104.414
 20
-38.4545
 11
-104
 21
-38.4
  0
LINE
  8
0
 10
-104
 20
-38.4
 11
-103.586
 21
-38.4545
  0
LINE
  8
0
 10
-103.586
 20
-38.4545
 11
-103.2
 21
-38.6143
  0
LINE
  8
0
 10
-103.2
 20
-38.6143
 11
-102.869
 21
-38.8686
  0
LINE
  8
0
 10
-102.869
 20
-38.8686
 11
-102.614
 21
-39.2
  0
LINE
  8
0
 10
-102.614
 20
-39.2
 11
-102.455
 21
-39.5859
  0
LINE
  8
0
 10
-102.455
 20
-39.5859
 11
-102.4
 21
-40
  0
LINE
  8
0
 10
-102.4
 20
-40
 11
-102.455
 21
-40.4141
  0
LINE
  8
0
 10
-102.455
 20
-40.4141
 11
-102.614
 21
-40.8
  0
LINE
  8
0
 10
-102.614
 20
-40.8
 11
-102.869
 21
-41.1314
  0
LINE
  8
0
 10
-102.869
 20
-41.1314
 11
-103.2
 21
-41.3856
  0
LINE
  8
0
 10
-103.2
 20
-41.3856
 11
-103.586
 21
-41.5455
  0
LINE
  8
0
 10
-103.586
 20
-41.5455
 11
-104
 21
-41.6
  0
LINE
  8
0
 10
-104
 20
-41.6
 11
-104.414
 21
-41.5455
  0
LINE
  8
0
 10
-0.414108
 20
-115.545
 11
-0.799988
 21
-115.386
  0
LINE
  8
0
 10
-0.799988
 20
-115.386
 11
-1.13136
 21
-115.131
  0
LINE
  8
0
 10
-1.13136
 20
-115.131
 11
-1.38564
 21
-114.8
  0
LINE
  8
0
 10
-1.38564
 20
-114.8
 11
-1.54547
 21
-114.414
  0
LINE
  8
0
 10
-1.54547
 20
-114.414
 11
-1.59999
 21
-114
  0
LINE
  8
0
 10
-1.59999
 20
-114
 11
-1.54547
 21
-113.586
  0
LINE
  8
0
 10
-1.54547
 20
-113.586
 11
-1.38564
 21
-113.2
  0
LINE
  8
0
 10
-1.38564
 20
-113.2
 11
-1.13136
 21
-112.869
  0
LINE
  8
0
 10
-1.13136
 20
-112.869
 11
-0.799988
 21
-112.614
  0
LINE
  8
0
 10
-0.799988
 20
-112.614
 11
-0.414108
 21
-112.455
  0
LINE
  8
0
 10
-0.414108
 20
-112.455
 11
0
 21
-112.4
  0
LINE
  8
0
 10
0
 20
-112.4
 11
0.414108
 21
-112.455
  0
LINE
  8
0
 10
0.414108
 20
-112.455
 11
0.799988
 21
-112.614
  0
LINE
  8
0
 10
0.799988
 20
-112.614
 11
1.13136
 21
-112.869
  0
LINE
  8
0
 10
1.13136
 20
-112.869
 11
1.38564
 21
-113.2
  0
LINE
  8
0
 10
1.38564
 20
-113.2
 11
1.54547
 21
-113.586
  0
LINE
  8
0
 10
1.54547
 20
-113.586
 11
1.59999
 21
-114
  0
LINE
  8
0
 10
1.59999
 20
-114
 11
1.54547
 21
-114.414
  0
LINE
  8
0
 10
1.54547
 20
-114.414
 11
1.38564
 21
-114.8
  0
LINE
  8
0
 10
1.38564
 20
-114.8
 11
1.13136
 21
-115.131
  0
LINE
  8
0
 10
1.13136
 20
-115.131
 11
0.799988
 21
-115.386
  0
LINE
  8
0
 10
0.799988
 20
-115.386
 11
0.414108
 21
-115.545
  0
LINE
  8
0
 10
0.414108
 20
-115.545
 11
0
 21
-115.6
  0
LINE
  8
0
 10
0
 20
-115.6
 11
-0.414108
 21
-115.545
  0
LINE
  8
0
 10
-104.414
 20
-115.545
 11
-104.8
 21
-115.386
  0
LINE
  8
0
 10
-104.8
 20
-115.386
 11
-105.131
 21
-115.131
  0
LINE
  8
0
 10
-105.131
 20
-115.131
 11
-105.386
 21
-114.8
  0
LINE
  8
0
 10
-105.386
 20
-114.8
 11
-105.545
 21
-114.414
  0
LINE
  8
0
 10
-105.545
 20
-114.414
 11
-105.6
 21
-114
  0
LINE
  8
0
 10
-105.6
 20
-114
 11
-105.545
 21
-113.586
  0
LINE
  8
0
 10
-105.545
 20
-113.586
 11
-105.386
 21
-113.2
  0
LINE
  8
0
 10
-105.386
 20
-113.2
 11
-105.131
 21
-112.869
  0
LINE
  8
0
 10
-105.131
 20
-112.869
 11
-104.8
 21
-112.614
  0
LINE
  8
0
 10
-104.8
 20
-112.614
 11
-104.414
 21
-112.455
  0
LINE
  8
0
 10
-104.414
 20
-112.455
 11
-104
 21
-112.4
  0
LINE
  8
0
 10
-104
 20
-112.4
 11
-103.586
 21
-112.455
  0
LINE
  8
0
 10
-103.586
 20
-112.455
 11
-103.2
 21
-112.614
  0
LINE
  8
0
 10
-103.2
 20
-112.614
 11
-102.869
 21
-112.869
  0
LINE
  8
0
 10
-102.869
 20
-112.869
 11
-102.614
 21
-113.2
  0
LINE
  8
0
 10
-102.614
 20
-113.2
 11
-102.455
 21
-113.586
  0
LINE
  8
0
 10
-102.455
 20
-113.586
 11
-102.4
 21
-114
  0
LINE
  8
0
 10
-102.4
 20
-114
 11
-102.455
 21
-114.414
  0
LINE
  8
0
 10
-102.455
 20
-114.414
 11
-102.614
 21
-114.8
  0
LINE
  8
0
 10
-102.614
 20
-114.8
 11
-102.869
 21
-115.131
  0
LINE
  8
0
 10
-102.869
 20
-115.131
 11
-103.2
 21
-115.386
  0
LINE
  8
0
 10
-103.2
 20
-115.386
 11
-103.586
 21
-115.545
  0
LINE
  8
0
 10
-103.586
 20
-115.545
 11
-104
 21
-115.6
  0
LINE
  8
0
 10
-104
 20
-115.6
 11
-104.414
 21
-115.545
  0
LINE
  8
0
 10
103.586
 20
-115.545
 11
103.2
 21
-115.386
  0
LINE
  8
0
 10
103.2
 20
-115.386
 11
102.869
 21
-115.131
  0
LINE
  8
0
 10
102.869
 20
-115.131
 11
102.614
 21
-114.8
  0
LINE
  8
0
 10
102.614
 20
-114.8
 11
102.455
 21
-114.414
  0
LINE
  8
0
 10
102.455
 20
-114.414
 11
102.4
 21
-114
  0
LINE
  8
0
 10
102.4
 20
-114
 11
102.455
 21
-113.586
  0
LINE
  8
0
 10
102.455
 20
-113.586
 11
102.614
 21
-113.2
  0
LINE
  8
0
 10
102.614
 20
-113.2
 11
102.869
 21
-112.869
  0
LINE
  8
0
 10
102.869
 20
-112.869
 11
103.2
 21
-112.614
  0
LINE
  8
0
 10
103.2
 20
-112.614
 11
103.586
 21
-112.455
  0
LINE
  8
0
 10
103.586
 20
-112.455
 11
104
 21
-112.4
  0
LINE
  8
0
 10
104
 20
-112.4
 11
104.414
 21
-112.455
  0
LINE
  8
0
 10
104.414
 20
-112.455
 11
104.8
 21
-112.614
  0
LINE
  8
0
 10
104.8
 20
-112.614
 11
105.131
 21
-112.869
  0
LINE
  8
0
 10
105.131
 20
-112.869
 11
105.386
 21
-113.2
  0
LINE
  8
0
 10
105.386
 20
-113.2
 11
105.545
 21
-113.586
  0
LINE
  8
0
 10
105.545
 20
-113.586
 11
105.6
 21
-114
  0
LINE
  8
0
 10
105.6
 20
-114
 11
105.545
 21
-114.414
  0
LINE
  8
0
 10
105.545
 20
-114.414
 11
105.386
 21
-114.8
  0
LINE
  8
0
 10
105.386
 20
-114.8
 11
105.131
 21
-115.131
  0
LINE
  8
0
 10
105.131
 20
-115.131
 11
104.8
 21
-115.386
  0
LINE
  8
0
 10
104.8
 20
-115.386
 11
104.414
 21
-115.545
  0
LINE
  8
0
 10
104.414
 20
-115.545
 11
104
 21
-115.6
  0
LINE
  8
0
 10
104
 20
-115.6
 11
103.586
 21
-115.545
  0
ENDSEC
  0
SECTION
  2
OBJECTS
  0
DICTIONARY
  0
ENDSEC
  0
EOF
